<svg width="28" height="28" viewBox="0 0 28 28" fill="none" xmlns="http://www.w3.org/2000/svg">
<path fill-rule="evenodd" clip-rule="evenodd" d="M14.0019 3.91663C13.7852 3.91663 13.5899 4.00854 13.453 4.15552L8.07363 9.53149C7.78065 9.82429 7.7805 10.2992 8.0733 10.5922C8.3661 10.8851 8.84097 10.8853 9.13396 10.5925L13.2519 6.47715V18.6666C13.2519 19.0808 13.5877 19.4166 14.0019 19.4166C14.4161 19.4166 14.7519 19.0808 14.7519 18.6666V6.48198L18.8653 10.5925C19.1583 10.8853 19.6332 10.8851 19.926 10.5921C20.2188 10.2991 20.2186 9.82426 19.9256 9.53147L14.5838 4.19342C14.4463 4.02451 14.2367 3.91663 14.0019 3.91663ZM5.41626 18.6666C5.41626 18.2524 5.08047 17.9166 4.66626 17.9166C4.25205 17.9166 3.91626 18.2524 3.91626 18.6666V21.8333C3.91626 23.0759 4.92362 24.0833 6.16626 24.0833H21.8339C23.0766 24.0833 24.0839 23.0759 24.0839 21.8333V18.6666C24.0839 18.2524 23.7482 17.9166 23.3339 17.9166C22.9197 17.9166 22.5839 18.2524 22.5839 18.6666V21.8333C22.5839 22.2475 22.2482 22.5833 21.8339 22.5833H6.16626C5.75205 22.5833 5.41626 22.2475 5.41626 21.8333V18.6666Z" fill="#344054"/>
</svg>
